<svg xmlns="http://www.w3.org/2000/svg" viewBox="0 0 1024 1024" role="img" aria-label="Stillscreen Focus Launcher logo">
  <rect width="1024" height="1024" fill="#F3F0E8"/>
  <rect x="172" y="164" width="680" height="696" rx="156" fill="#16231F"/>
  <rect x="252" y="252" width="520" height="520" rx="104" fill="#E8F0DF"/>
  <path d="M350 420c0-66 54-118 138-118h160v94H488c-27 0-46 14-46 34 0 24 22 35 73 48l56 14c87 22 132 65 132 132 0 76-62 124-154 124H374v-94h176c37 0 60-14 60-38 0-22-19-34-68-46l-63-16c-84-21-129-66-129-134z" fill="#16231F"/>
  <rect x="704" y="650" width="44" height="122" rx="22" fill="#8DB596"/>
</svg>
